# xmcd
#
# Track frame offsets:
#	150
#	17045
#	31667
#	47562
#	65877
#	81460
#	96820
#	111507
#	125692
#	146915
#	161660
#	173765
#	188727
#	200470
#	217270
#	232672
#	249925
#	265680
#	281202
#	299480
#	314597
#
# Disc length: 4370 seconds
#
# Revision: 0
# Processed by: cddbd v1.5.2PL0 Copyright (c) Steve Scherf et al.
# Submitted via: EasyCDDAExtractor 12.0.1.1
#
DISCID=43111015
DTITLE=Martina McBride - The Collection
DYEAR=2006
DGENRE=Country
TTITLE0=Wild Angels
TTITLE1=Safe in The Arms of Love
TTITLE2=Phones Are Ringin' All Over Town
TTITLE3=A Great Disguise
TTITLE4=Swingin' Doors
TTITLE5=All The Things We've Never Done
TTITLE6=Two More Bottles of Wine
TTITLE7=Cry On The Shoulder of The Road
TTITLE8=You've Been Driving All The Time
TTITLE9=Born to Give My Love to You
TTITLE10=Beyond The Blue
TTITLE11=Heart Trouble
TTITLE12=My Baby Loves Me
TTITLE13=That Wasn't Me
TTITLE14=Independence Day
TTITLE15=Where I Used to Have A Heart
TTITLE16=Goin' to Work
TTITLE17=She Ain't Seen Nothing Yet
TTITLE18=Life #9
TTITLE19=Strangers
TTITLE20=Ashes
EXTD=
EXTT0=
EXTT1=
EXTT2=
EXTT3=
EXTT4=
EXTT5=
EXTT6=
EXTT7=
EXTT8=
EXTT9=
EXTT10=
EXTT11=
EXTT12=
EXTT13=
EXTT14=
EXTT15=
EXTT16=
EXTT17=
EXTT18=
EXTT19=
EXTT20=
PLAYORDER=
